<svg width="20" height="21" viewBox="0 0 20 21" fill="none" xmlns="http://www.w3.org/2000/svg">
  <g clip-path="url(#clip0_676_584)">
    <path d="M10.0001 2.16669C6.77508 2.16669 4.16675 4.77502 4.16675 8.00002C4.16675 12.375 10.0001 18.8334 10.0001 18.8334C10.0001 18.8334 15.8334 12.375 15.8334 8.00002C15.8334 4.77502 13.2251 2.16669 10.0001 2.16669ZM5.83341 8.00002C5.83341 5.70002 7.70008 3.83335 10.0001 3.83335C12.3001 3.83335 14.1667 5.70002 14.1667 8.00002C14.1667 10.4 11.7667 13.9917 10.0001 16.2334C8.26675 14.0084 5.83341 10.375 5.83341 8.00002Z" fill="currentColor"/>
    <path d="M10.0001 10.0834C11.1507 10.0834 12.0834 9.15061 12.0834 8.00002C12.0834 6.84943 11.1507 5.91669 10.0001 5.91669C8.84949 5.91669 7.91675 6.84943 7.91675 8.00002C7.91675 9.15061 8.84949 10.0834 10.0001 10.0834Z" fill="currentColor"/>
  </g>
  <defs>
    <clipPath id="clip0_676_584">
      <rect width="20" height="20" fill="transparent" transform="translate(0 0.5)"/>
    </clipPath>
  </defs>
</svg>
