<svg width="20" height="21" viewBox="0 0 20 21" fill="none" xmlns="http://www.w3.org/2000/svg">
  <path fill-rule="evenodd" clip-rule="evenodd" d="M13.3071 14.87C15.3954 14.6206 17.2137 13.3339 17.4422 12.1582C17.8023 10.3062 17.7726 7.63868 17.7726 7.63868C17.7726 4.02317 15.4038 2.96341 15.4038 2.96341C14.2094 2.41485 12.1585 2.18417 10.0277 2.16675H9.97539C7.84464 2.18417 5.79507 2.41485 4.60062 2.96341C4.60062 2.96341 2.23173 4.02317 2.23173 7.63868C2.23173 7.85787 2.2306 8.08841 2.22942 8.32841C2.22615 8.99493 2.22251 9.73442 2.24179 10.5063C2.32781 14.0421 2.89002 17.5267 6.1591 18.392C7.6664 18.791 8.96053 18.8745 10.0028 18.8172C11.8929 18.7124 12.9539 18.1426 12.9539 18.1426L12.8916 16.7713C12.8916 16.7713 11.5409 17.1972 10.024 17.1453C8.52107 17.0937 6.93448 16.9832 6.69141 15.138C6.66896 14.9759 6.65773 14.8026 6.65773 14.6206C6.65773 14.6206 8.13307 14.9812 10.0028 15.0669C11.1461 15.1193 12.2182 14.9999 13.3071 14.87ZM14.9784 12.2969V7.91916C14.9784 7.02444 14.7506 6.31344 14.2931 5.78742C13.8211 5.2614 13.2032 4.99175 12.4361 4.99175C11.5485 4.99175 10.8764 5.33288 10.4321 6.01523L10 6.73943L9.56799 6.01523C9.1236 5.33288 8.45148 4.99175 7.56395 4.99175C6.79683 4.99175 6.17886 5.2614 5.70698 5.78742C5.24939 6.31344 5.02158 7.02444 5.02158 7.91916V12.2969H6.75597V8.04783C6.75597 7.15213 7.13284 6.69749 7.88667 6.69749C8.72015 6.69749 9.13796 7.2368 9.13796 8.30321V10.629H10.8621V8.30321C10.8621 7.2368 11.2798 6.69749 12.1133 6.69749C12.8672 6.69749 13.244 7.15213 13.244 8.04783V12.2969H14.9784Z" fill="currentColor"/>
</svg>
