<svg width="20" height="18" viewBox="0 0 20 18" fill="none" xmlns="http://www.w3.org/2000/svg">
<path d="M17.9525 4.91998C17.9647 5.0963 17.9647 5.27261 17.9647 5.45055C17.9647 10.8724 13.8371 17.1255 6.28966 17.1255V17.1223C4.06013 17.1255 1.8769 16.4869 0 15.2828C0.324193 15.3218 0.65001 15.3413 0.97664 15.3421C2.82429 15.3437 4.61913 14.7238 6.07272 13.5822C4.31688 13.5489 2.77717 12.404 2.23928 10.7327C2.85436 10.8513 3.48812 10.8269 4.09181 10.662C2.17753 10.2753 0.800325 8.59335 0.800325 6.64007C0.800325 6.6222 0.800325 6.60513 0.800325 6.58807C1.37071 6.90576 2.00934 7.08208 2.6626 7.10158C0.859638 5.89662 0.30388 3.49808 1.39265 1.6228C3.47593 4.18628 6.54966 5.74468 9.84928 5.90962C9.51859 4.48447 9.97034 2.99108 11.0364 1.98925C12.689 0.435724 15.2882 0.51535 16.8418 2.16719C17.7607 1.986 18.6415 1.64881 19.4475 1.17105C19.1412 2.12088 18.5001 2.9277 17.6437 3.4404C18.457 3.34452 19.2517 3.12677 20 2.79445C19.4491 3.61996 18.7552 4.33903 17.9525 4.91998Z" fill="#00E18F"/>
</svg>
