<svg width="20" height="21" viewBox="0 0 20 21" fill="none" xmlns="http://www.w3.org/2000/svg">
  <g clip-path="url(#clip0_622_315)">
    <path d="M9.99984 2.16663C6.77484 2.16663 4.1665 4.77496 4.1665 7.99996C4.1665 12.375 9.99984 18.8333 9.99984 18.8333C9.99984 18.8333 15.8332 12.375 15.8332 7.99996C15.8332 4.77496 13.2248 2.16663 9.99984 2.16663ZM5.83317 7.99996C5.83317 5.69996 7.69984 3.83329 9.99984 3.83329C12.2998 3.83329 14.1665 5.69996 14.1665 7.99996C14.1665 10.4 11.7665 13.9916 9.99984 16.2333C8.2665 14.0083 5.83317 10.375 5.83317 7.99996Z" fill="currentColor"/>
    <path d="M9.99984 10.0833C11.1504 10.0833 12.0832 9.15055 12.0832 7.99996C12.0832 6.84937 11.1504 5.91663 9.99984 5.91663C8.84924 5.91663 7.9165 6.84937 7.9165 7.99996C7.9165 9.15055 8.84924 10.0833 9.99984 10.0833Z" fill="currentColor"/>
  </g>
</svg>
