<svg width="28" height="25" viewBox="0 0 28 25" fill="none" xmlns="http://www.w3.org/2000/svg">
<path d="M27.3334 9.97341V22.0001C27.3334 23.4667 26.1334 24.6667 24.6667 24.6667H3.33341C1.86675 24.6667 0.666748 23.4667 0.666748 22.0001V6.00008C0.666748 4.53341 1.86675 3.33341 3.33341 3.33341H16.8001C16.7201 3.76008 16.6667 4.21341 16.6667 4.66675C16.6667 6.64008 17.5334 8.38675 18.8934 9.61341L14.0001 12.6667L3.33341 6.00008V8.66675L14.0001 15.3334L21.0667 10.9067C21.7867 11.1734 22.5334 11.3334 23.3334 11.3334C24.8401 11.3334 26.2134 10.8134 27.3334 9.97341ZM19.3334 4.66675C19.3334 6.88008 21.1201 8.66675 23.3334 8.66675C25.5467 8.66675 27.3334 6.88008 27.3334 4.66675C27.3334 2.45341 25.5467 0.666748 23.3334 0.666748C21.1201 0.666748 19.3334 2.45341 19.3334 4.66675Z" fill="#00E18F"/>
</svg>
