<svg width="12" height="17" viewBox="0 0 12 17" fill="none" xmlns="http://www.w3.org/2000/svg">
<path d="M5.99999 0.166672C2.77499 0.166672 0.166656 2.77501 0.166656 6.00001C0.166656 7.45001 0.583323 8.80834 1.34166 10.0333C2.13332 11.3167 3.17499 12.4167 3.97499 13.7C4.36666 14.325 4.64999 14.9083 4.94999 15.5833C5.16666 16.0417 5.34166 16.8333 5.99999 16.8333C6.65832 16.8333 6.83332 16.0417 7.04166 15.5833C7.34999 14.9083 7.62499 14.325 8.01666 13.7C8.81666 12.425 9.85832 11.325 10.65 10.0333C11.4167 8.80834 11.8333 7.45001 11.8333 6.00001C11.8333 2.77501 9.22499 0.166672 5.99999 0.166672ZM5.99999 8.29167C4.84999 8.29167 3.91666 7.35834 3.91666 6.20834C3.91666 5.05834 4.84999 4.12501 5.99999 4.12501C7.14999 4.12501 8.08332 5.05834 8.08332 6.20834C8.08332 7.35834 7.14999 8.29167 5.99999 8.29167Z" fill="#00E18F"/>
</svg>
