<svg width="30" height="20" viewBox="0 0 30 20" xmlns="http://www.w3.org/2000/svg">
  <path d="M20.9999 11.3333C19.3999 11.3333 16.9066 11.7866 14.9999 12.6666C13.0933 11.7733 10.5999 11.3333 8.99992 11.3333C6.10659 11.3333 0.333252 12.7733 0.333252 15.6666V19.3333H29.6666V15.6666C29.6666 12.7733 23.8933 11.3333 20.9999 11.3333ZM15.6666 17.3333H2.33325V15.6666C2.33325 14.9466 5.74658 13.3333 8.99992 13.3333C12.2533 13.3333 15.6666 14.9466 15.6666 15.6666V17.3333ZM27.6666 17.3333H17.6666V15.6666C17.6666 15.0533 17.3999 14.52 16.9732 14.04C18.1466 13.64 19.5866 13.3333 20.9999 13.3333C24.2533 13.3333 27.6666 14.9466 27.6666 15.6666V17.3333ZM8.99992 9.99996C11.5733 9.99996 13.6666 7.90663 13.6666 5.33329C13.6666 2.75996 11.5733 0.666626 8.99992 0.666626C6.42659 0.666626 4.33325 2.75996 4.33325 5.33329C4.33325 7.90663 6.42659 9.99996 8.99992 9.99996ZM8.99992 2.66663C10.4666 2.66663 11.6666 3.86663 11.6666 5.33329C11.6666 6.79996 10.4666 7.99996 8.99992 7.99996C7.53325 7.99996 6.33325 6.79996 6.33325 5.33329C6.33325 3.86663 7.53325 2.66663 8.99992 2.66663ZM20.9999 9.99996C23.5732 9.99996 25.6666 7.90663 25.6666 5.33329C25.6666 2.75996 23.5732 0.666626 20.9999 0.666626C18.4266 0.666626 16.3333 2.75996 16.3333 5.33329C16.3333 7.90663 18.4266 9.99996 20.9999 9.99996ZM20.9999 2.66663C22.4666 2.66663 23.6666 3.86663 23.6666 5.33329C23.6666 6.79996 22.4666 7.99996 20.9999 7.99996C19.5333 7.99996 18.3333 6.79996 18.3333 5.33329C18.3333 3.86663 19.5333 2.66663 20.9999 2.66663Z" fill="currentColor"/>
</svg>
