<svg width="18" height="17" viewBox="0 0 18 17" fill="none" xmlns="http://www.w3.org/2000/svg">
<path d="M8.16666 4.33329H9.83332V5.99996H8.16666V4.33329ZM8.16666 7.66663H9.83332V12.6666H8.16666V7.66663ZM8.99999 0.166626C4.39999 0.166626 0.666656 3.89996 0.666656 8.49996C0.666656 13.1 4.39999 16.8333 8.99999 16.8333C13.6 16.8333 17.3333 13.1 17.3333 8.49996C17.3333 3.89996 13.6 0.166626 8.99999 0.166626ZM8.99999 15.1666C5.32499 15.1666 2.33332 12.175 2.33332 8.49996C2.33332 4.82496 5.32499 1.83329 8.99999 1.83329C12.675 1.83329 15.6667 4.82496 15.6667 8.49996C15.6667 12.175 12.675 15.1666 8.99999 15.1666Z" fill="#00E18F"/>
</svg>
