<svg width="28" height="28" viewBox="0 0 28 28" fill="none" xmlns="http://www.w3.org/2000/svg">
<path d="M14 0.666748C11.3629 0.666748 8.78502 1.44873 6.59236 2.91382C4.39971 4.37891 2.69074 6.46129 1.68157 8.89764C0.672403 11.334 0.408359 14.0149 0.922828 16.6013C1.4373 19.1877 2.70717 21.5635 4.57188 23.4282C6.43658 25.2929 8.81235 26.5627 11.3988 27.0772C13.9852 27.5917 16.6661 27.3276 19.1024 26.3185C21.5388 25.3093 23.6211 23.6003 25.0862 21.4077C26.5513 19.215 27.3333 16.6372 27.3333 14.0001C27.3333 12.2491 26.9884 10.5153 26.3184 8.89764C25.6483 7.27996 24.6662 5.81011 23.4281 4.57199C22.1899 3.33388 20.7201 2.35175 19.1024 1.68169C17.4847 1.01162 15.7509 0.666748 14 0.666748ZM22 13.7334C22.0207 13.9638 21.9744 14.1954 21.8666 14.4001L19.0666 20.9334C18.9206 21.2665 18.6764 21.5471 18.3667 21.7377C18.057 21.9283 17.6964 22.0198 17.3333 22.0001H9.99997C9.29272 22.0001 8.61444 21.7191 8.11435 21.219C7.61425 20.7189 7.3333 20.0407 7.3333 19.3334V12.6667C7.31998 12.4191 7.3608 12.1715 7.4529 11.9413C7.54501 11.711 7.6862 11.5036 7.86663 11.3334L14 4.66675L14.92 5.58675C15.1622 5.83897 15.3044 6.17072 15.32 6.52008V6.78675L14.5466 11.3334H20.6666C21.0203 11.3334 21.3594 11.4739 21.6094 11.7239C21.8595 11.974 22 12.3131 22 12.6667V13.7334Z" fill="currentColor"/>
</svg>
