<svg width="22" height="22" viewBox="0 0 22 22" xmlns="http://www.w3.org/2000/svg">
  <path d="M11.0002 2.86665C12.5468 2.86665 13.8002 4.11998 13.8002 5.66665C13.8002 7.21331 12.5468 8.46665 11.0002 8.46665C9.4535 8.46665 8.20016 7.21331 8.20016 5.66665C8.20016 4.11998 9.4535 2.86665 11.0002 2.86665ZM11.0002 14.8666C14.9602 14.8666 19.1335 16.8133 19.1335 17.6666V19.1333H2.86683V17.6666C2.86683 16.8133 7.04016 14.8666 11.0002 14.8666ZM11.0002 0.333313C8.0535 0.333313 5.66683 2.71998 5.66683 5.66665C5.66683 8.61331 8.0535 11 11.0002 11C13.9468 11 16.3335 8.61331 16.3335 5.66665C16.3335 2.71998 13.9468 0.333313 11.0002 0.333313ZM11.0002 12.3333C7.44016 12.3333 0.333496 14.12 0.333496 17.6666V21.6666H21.6668V17.6666C21.6668 14.12 14.5602 12.3333 11.0002 12.3333Z" fill="currentColor"/>
</svg>
