<svg width="28" height="25" viewBox="0 0 28 25" xmlns="http://www.w3.org/2000/svg">
  <path d="M27.3334 9.97341V22.0001C27.3334 23.4667 26.1334 24.6667 24.6667 24.6667H3.33341C1.86675 24.6667 0.666748 23.4667 0.666748 22.0001L0.680081 6.00008C0.680081 4.53341 1.86675 3.33341 3.33341 3.33341H16.8001C16.7201 3.76008 16.6667 4.21341 16.6667 4.66675C16.6667 5.12008 16.7201 5.57341 16.8001 6.00008H3.33341L14.0001 12.6667L18.8934 9.61341C19.5201 10.1867 20.2534 10.6267 21.0667 10.9201L14.0001 15.3334L3.33341 8.66675V22.0001H24.6667V11.2001C25.6534 11.0001 26.5601 10.5601 27.3334 9.97341ZM19.3334 4.66675C19.3334 6.88008 21.1201 8.66675 23.3334 8.66675C25.5467 8.66675 27.3334 6.88008 27.3334 4.66675C27.3334 2.45341 25.5467 0.666748 23.3334 0.666748C21.1201 0.666748 19.3334 2.45341 19.3334 4.66675Z" fill="currentColor"/>
</svg>
