<svg width="20" height="21" viewBox="0 0 20 21" fill="none" xmlns="http://www.w3.org/2000/svg">
  <path d="M9.16675 6.33335H10.8334V8.00002H9.16675V6.33335ZM9.16675 9.66669H10.8334V14.6667H9.16675V9.66669ZM10.0001 2.16669C5.40008 2.16669 1.66675 5.90002 1.66675 10.5C1.66675 15.1 5.40008 18.8334 10.0001 18.8334C14.6001 18.8334 18.3334 15.1 18.3334 10.5C18.3334 5.90002 14.6001 2.16669 10.0001 2.16669ZM10.0001 17.1667C6.32508 17.1667 3.33341 14.175 3.33341 10.5C3.33341 6.82502 6.32508 3.83335 10.0001 3.83335C13.6751 3.83335 16.6667 6.82502 16.6667 10.5C16.6667 14.175 13.6751 17.1667 10.0001 17.1667Z" fill="currentColor"/>
</svg>
