<svg width="20" height="21" viewBox="0 0 20 21" fill="none" xmlns="http://www.w3.org/2000/svg">
  <path d="M17.5 4.10294V16.8971C17.5 17.1896 17.3838 17.4701 17.177 17.677C16.9701 17.8838 16.6896 18 16.3971 18H3.60294C3.31042 18 3.02989 17.8838 2.82304 17.677C2.6162 17.4701 2.5 17.1896 2.5 16.8971V4.10294C2.5 3.81042 2.6162 3.52989 2.82304 3.32304C3.02989 3.1162 3.31042 3 3.60294 3H16.3971C16.6896 3 16.9701 3.1162 17.177 3.32304C17.3838 3.52989 17.5 3.81042 17.5 4.10294V4.10294ZM6.91176 8.73529H4.70588V15.7941H6.91176V8.73529ZM7.11029 6.30882C7.11146 6.14197 7.07974 5.97651 7.01696 5.82191C6.95418 5.66731 6.86156 5.52659 6.7444 5.40779C6.62723 5.28898 6.48781 5.19442 6.3341 5.1295C6.18038 5.06458 6.01539 5.03057 5.84853 5.02941H5.80882C5.4695 5.02941 5.14408 5.16421 4.90414 5.40414C4.66421 5.64408 4.52941 5.9695 4.52941 6.30882C4.52941 6.64814 4.66421 6.97357 4.90414 7.2135C5.14408 7.45344 5.4695 7.58824 5.80882 7.58824V7.58824C5.97569 7.59234 6.14173 7.56353 6.29746 7.50344C6.45319 7.44335 6.59555 7.35317 6.71642 7.23804C6.83728 7.12291 6.93427 6.9851 7.00186 6.83247C7.06944 6.67985 7.10629 6.5154 7.11029 6.34853V6.30882ZM15.2941 11.5059C15.2941 9.38382 13.9441 8.55882 12.6029 8.55882C12.1638 8.53684 11.7266 8.63037 11.3349 8.83009C10.9432 9.02981 10.6107 9.32874 10.3706 9.69706H10.3088V8.73529H8.23529V15.7941H10.4412V12.0397C10.4093 11.6552 10.5304 11.2736 10.7782 10.9779C11.026 10.6822 11.3805 10.4962 11.7647 10.4603H11.8485C12.55 10.4603 13.0706 10.9015 13.0706 12.0132V15.7941H15.2765L15.2941 11.5059Z" fill="currentColor"/>
</svg>
