<svg width="32" height="32" viewBox="0 0 32 32" fill="none" xmlns="http://www.w3.org/2000/svg">
  <g opacity="0.25" clip-path="url(#clip0_676_766)">
  <path d="M5.19984 16C5.19984 13.72 7.05317 11.8666 9.33317 11.8666H14.6665V9.33331H9.33317C5.65317 9.33331 2.6665 12.32 2.6665 16C2.6665 19.68 5.65317 22.6666 9.33317 22.6666H14.6665V20.1333H9.33317C7.05317 20.1333 5.19984 18.28 5.19984 16ZM10.6665 17.3333H21.3332V14.6666H10.6665V17.3333ZM22.6665 9.33331H17.3332V11.8666H22.6665C24.9465 11.8666 26.7998 13.72 26.7998 16C26.7998 18.28 24.9465 20.1333 22.6665 20.1333H17.3332V22.6666H22.6665C26.3465 22.6666 29.3332 19.68 29.3332 16C29.3332 12.32 26.3465 9.33331 22.6665 9.33331Z" fill="currentColor"/>
  </g>
  <defs>
    <clipPath id="clip0_676_766">
      <rect width="32" height="32" fill="transparent"/>
    </clipPath>
  </defs>
</svg>
